<svg width="108" height="20" viewBox="0 0 108 20" fill="none" xmlns="http://www.w3.org/2000/svg">
<path d="M10.5386 1.47911C10.1983 1.31686 9.803 1.31686 9.4627 1.47911C9.16852 1.61937 9.00633 1.8629 8.92453 1.9965C8.83997 2.13462 8.75317 2.31056 8.66856 2.48205L6.87212 6.12145L2.85374 6.7088C2.66458 6.73641 2.47049 6.76474 2.31306 6.80259C2.16076 6.83921 1.87917 6.91842 1.65508 7.15496C1.39584 7.4286 1.27392 7.80461 1.32327 8.17831C1.36593 8.50133 1.54746 8.73071 1.6493 8.84973C1.75456 8.97276 1.8951 9.1096 2.03207 9.24295L4.93857 12.0739L4.25277 16.0724C4.22039 16.261 4.18718 16.4544 4.17439 16.6159C4.16203 16.772 4.15007 17.0645 4.30566 17.3509C4.48562 17.6822 4.80552 17.9146 5.17624 17.9833C5.49675 18.0427 5.77115 17.941 5.91585 17.8809C6.06547 17.8189 6.23915 17.7275 6.40845 17.6384L10.0007 15.7493L13.5929 17.6384C13.7622 17.7275 13.9359 17.8189 14.0855 17.8809C14.2302 17.941 14.5046 18.0427 14.8251 17.9833C15.1958 17.9146 15.5157 17.6822 15.6957 17.3509C15.8513 17.0645 15.8393 16.772 15.827 16.6159C15.8142 16.4544 15.781 16.261 15.7486 16.0725L15.0628 12.0739L17.9693 9.24292C18.1063 9.10957 18.2468 8.97275 18.352 8.84973C18.4539 8.73071 18.6354 8.50133 18.6781 8.17831C18.7274 7.80461 18.6055 7.4286 18.3463 7.15496C18.1222 6.91842 17.8406 6.83922 17.6883 6.80259C17.5308 6.76474 17.3368 6.73641 17.1476 6.7088L13.1292 6.12145L11.3328 2.48211C11.2482 2.31061 11.1614 2.13463 11.0768 1.9965C10.995 1.8629 10.8328 1.61937 10.5386 1.47911Z" fill="#00B67A"/>
<path d="M32.5386 1.47911C32.1983 1.31686 31.803 1.31686 31.4627 1.47911C31.1685 1.61937 31.0063 1.8629 30.9245 1.9965C30.84 2.13462 30.7532 2.31056 30.6686 2.48205L28.8721 6.12145L24.8537 6.7088C24.6646 6.73641 24.4705 6.76474 24.3131 6.80259C24.1608 6.83921 23.8792 6.91842 23.6551 7.15496C23.3958 7.4286 23.2739 7.80461 23.3233 8.17831C23.3659 8.50133 23.5475 8.73071 23.6493 8.84973C23.7546 8.97276 23.8951 9.1096 24.0321 9.24295L26.9386 12.0739L26.2528 16.0724C26.2204 16.261 26.1872 16.4544 26.1744 16.6159C26.162 16.772 26.1501 17.0645 26.3057 17.3509C26.4856 17.6822 26.8055 17.9146 27.1762 17.9833C27.4967 18.0427 27.7711 17.941 27.9158 17.8809C28.0655 17.8189 28.2392 17.7275 28.4085 17.6384L32.0007 15.7493L35.5929 17.6384C35.7622 17.7275 35.9359 17.8189 36.0855 17.8809C36.2302 17.941 36.5046 18.0427 36.8251 17.9833C37.1958 17.9146 37.5157 17.6822 37.6957 17.3509C37.8513 17.0645 37.8393 16.772 37.827 16.6159C37.8142 16.4544 37.781 16.261 37.7486 16.0725L37.0628 12.0739L39.9693 9.24292C40.1063 9.10957 40.2468 8.97275 40.352 8.84973C40.4539 8.73071 40.6354 8.50133 40.6781 8.17831C40.7274 7.80461 40.6055 7.4286 40.3463 7.15496C40.1222 6.91842 39.8406 6.83922 39.6883 6.80259C39.5308 6.76474 39.3368 6.73641 39.1476 6.7088L35.1292 6.12145L33.3328 2.48211C33.2482 2.31061 33.1614 2.13463 33.0768 1.9965C32.995 1.8629 32.8328 1.61937 32.5386 1.47911Z" fill="#00B67A"/>
<path d="M54.5386 1.47911C54.1983 1.31686 53.803 1.31686 53.4627 1.47911C53.1685 1.61937 53.0063 1.8629 52.9245 1.9965C52.84 2.13462 52.7532 2.31056 52.6686 2.48205L50.8721 6.12145L46.8537 6.7088C46.6646 6.73641 46.4705 6.76474 46.3131 6.80259C46.1608 6.83921 45.8792 6.91842 45.6551 7.15496C45.3958 7.4286 45.2739 7.80461 45.3233 8.17831C45.3659 8.50133 45.5475 8.73071 45.6493 8.84973C45.7546 8.97276 45.8951 9.1096 46.0321 9.24295L48.9386 12.0739L48.2528 16.0724C48.2204 16.261 48.1872 16.4544 48.1744 16.6159C48.162 16.772 48.1501 17.0645 48.3057 17.3509C48.4856 17.6822 48.8055 17.9146 49.1762 17.9833C49.4967 18.0427 49.7711 17.941 49.9158 17.8809C50.0655 17.8189 50.2392 17.7275 50.4085 17.6384L54.0007 15.7493L57.5929 17.6384C57.7622 17.7275 57.9359 17.8189 58.0855 17.8809C58.2302 17.941 58.5046 18.0427 58.8251 17.9833C59.1958 17.9146 59.5157 17.6822 59.6957 17.3509C59.8513 17.0645 59.8393 16.772 59.827 16.6159C59.8142 16.4544 59.781 16.261 59.7486 16.0725L59.0628 12.0739L61.9693 9.24292C62.1063 9.10957 62.2468 8.97275 62.352 8.84973C62.4539 8.73071 62.6354 8.50133 62.6781 8.17831C62.7274 7.80461 62.6055 7.4286 62.3463 7.15496C62.1222 6.91842 61.8406 6.83922 61.6883 6.80259C61.5308 6.76474 61.3368 6.73641 61.1476 6.7088L57.1292 6.12145L55.3328 2.48211C55.2482 2.31061 55.1614 2.13463 55.0768 1.9965C54.995 1.8629 54.8328 1.61937 54.5386 1.47911Z" fill="#00B67A"/>
<path d="M76.5386 1.47911C76.1983 1.31686 75.803 1.31686 75.4627 1.47911C75.1685 1.61937 75.0063 1.8629 74.9245 1.9965C74.84 2.13462 74.7532 2.31056 74.6686 2.48205L72.8721 6.12145L68.8537 6.7088C68.6646 6.73641 68.4705 6.76474 68.3131 6.80259C68.1608 6.83921 67.8792 6.91842 67.6551 7.15496C67.3958 7.4286 67.2739 7.80461 67.3233 8.17831C67.3659 8.50133 67.5475 8.73071 67.6493 8.84973C67.7546 8.97276 67.8951 9.1096 68.0321 9.24295L70.9386 12.0739L70.2528 16.0724C70.2204 16.261 70.1872 16.4544 70.1744 16.6159C70.162 16.772 70.1501 17.0645 70.3057 17.3509C70.4856 17.6822 70.8055 17.9146 71.1762 17.9833C71.4967 18.0427 71.7711 17.941 71.9158 17.8809C72.0655 17.8189 72.2392 17.7275 72.4085 17.6384L76.0007 15.7493L79.5929 17.6384C79.7622 17.7275 79.9359 17.8189 80.0855 17.8809C80.2302 17.941 80.5046 18.0427 80.8251 17.9833C81.1958 17.9146 81.5157 17.6822 81.6957 17.3509C81.8513 17.0645 81.8393 16.772 81.827 16.6159C81.8142 16.4544 81.781 16.261 81.7486 16.0725L81.0628 12.0739L83.9693 9.24292C84.1063 9.10957 84.2468 8.97275 84.352 8.84973C84.4539 8.73071 84.6354 8.50133 84.6781 8.17831C84.7274 7.80461 84.6055 7.4286 84.3463 7.15496C84.1222 6.91842 83.8406 6.83922 83.6883 6.80259C83.5308 6.76474 83.3368 6.73641 83.1476 6.7088L79.1292 6.12145L77.3328 2.48211C77.2482 2.31061 77.1614 2.13463 77.0768 1.9965C76.995 1.8629 76.8328 1.61937 76.5386 1.47911Z" fill="#00B67A"/>
<path d="M98.5386 1.47911C98.1983 1.31686 97.803 1.31686 97.4627 1.47911C97.1685 1.61937 97.0063 1.8629 96.9245 1.9965C96.84 2.13462 96.7532 2.31056 96.6686 2.48205L94.8721 6.12145L90.8537 6.7088C90.6646 6.73641 90.4705 6.76474 90.3131 6.80259C90.1608 6.83921 89.8792 6.91842 89.6551 7.15496C89.3958 7.4286 89.2739 7.80461 89.3233 8.17831C89.3659 8.50133 89.5475 8.73071 89.6493 8.84973C89.7546 8.97276 89.8951 9.1096 90.0321 9.24295L92.9386 12.0739L92.2528 16.0724C92.2204 16.261 92.1872 16.4544 92.1744 16.6159C92.162 16.772 92.1501 17.0645 92.3057 17.3509C92.4856 17.6822 92.8055 17.9146 93.1762 17.9833C93.4967 18.0427 93.7711 17.941 93.9158 17.8809C94.0655 17.8189 94.2392 17.7275 94.4085 17.6384L98.0007 15.7493L101.593 17.6384C101.762 17.7275 101.936 17.8189 102.085 17.8809C102.23 17.941 102.505 18.0427 102.825 17.9833C103.196 17.9146 103.516 17.6822 103.696 17.3509C103.851 17.0645 103.839 16.772 103.827 16.6159C103.814 16.4544 103.781 16.261 103.749 16.0725L103.063 12.0739L105.969 9.24292C106.106 9.10957 106.247 8.97275 106.352 8.84973C106.454 8.73071 106.635 8.50133 106.678 8.17831C106.727 7.80461 106.606 7.4286 106.346 7.15496C106.122 6.91842 105.841 6.83922 105.688 6.80259C105.531 6.76474 105.337 6.73641 105.148 6.7088L101.129 6.12145L99.3328 2.48211C99.2482 2.31061 99.1614 2.13463 99.0768 1.9965C98.995 1.8629 98.8328 1.61937 98.5386 1.47911Z" fill="#00B67A"/>
</svg>
