<svg width="20" height="20" viewBox="0 0 20 20" fill="none" xmlns="http://www.w3.org/2000/svg">
<g id="marker-pin-04" clip-path="url(#clip0_6_85)">
<path id="Icon" d="M4.16663 11.9053C2.62382 12.5859 1.66663 13.5343 1.66663 14.5833C1.66663 16.6544 5.39759 18.3333 9.99996 18.3333C14.6023 18.3333 18.3333 16.6544 18.3333 14.5833C18.3333 13.5343 17.3761 12.5859 15.8333 11.9053M15 6.66666C15 10.0531 11.25 11.6667 9.99996 14.1667C8.74996 11.6667 4.99996 10.0531 4.99996 6.66666C4.99996 3.90524 7.23854 1.66666 9.99996 1.66666C12.7614 1.66666 15 3.90524 15 6.66666ZM10.8333 6.66666C10.8333 7.1269 10.4602 7.5 9.99996 7.5C9.53972 7.5 9.16663 7.1269 9.16663 6.66666C9.16663 6.20643 9.53972 5.83333 9.99996 5.83333C10.4602 5.83333 10.8333 6.20643 10.8333 6.66666Z" stroke="#56524F" stroke-width="2" stroke-linecap="round" stroke-linejoin="round"/>
</g>
<defs>
<clipPath id="clip0_6_85">
<rect width="20" height="20" fill="white"/>
</clipPath>
</defs>
</svg>
