<svg width="24" height="24" viewBox="0 0 24 24" fill="none" xmlns="http://www.w3.org/2000/svg">
<g id="Frame">
<g id="Group">
<path id="Vector" fill-rule="evenodd" clip-rule="evenodd" d="M5.383 14.5801C4.21938 14.3528 3.17089 13.7283 2.41696 12.8133C1.66303 11.8983 1.25051 10.7497 1.25 9.56408C1.25 6.74408 3.539 4.45508 6.359 4.45508C9.179 4.45508 11.468 6.74408 11.468 9.56408C11.468 13.3221 10.202 15.6561 8.716 17.1151C6.441 19.3491 3.592 19.5431 3.592 19.5431C3.4501 19.5536 3.30814 19.5235 3.18274 19.4562C3.05734 19.389 2.95369 19.2874 2.88392 19.1634C2.81415 19.0394 2.78115 18.8981 2.78878 18.756C2.79641 18.6139 2.84435 18.4769 2.927 18.3611C2.927 18.3611 4.281 16.4551 5.125 15.0451C5.213 14.8971 5.302 14.7341 5.383 14.5801ZM6.359 5.95508C4.367 5.95508 2.75 7.57208 2.75 9.56408C2.75 11.5561 4.367 13.1731 6.359 13.1731C6.642 13.1731 6.84 13.2891 6.984 13.4551C7.105 13.5951 7.219 13.8191 7.18 14.1481C7.146 14.4331 6.854 15.0771 6.412 15.8161C6.076 16.3761 5.663 17.0121 5.28 17.5831C6.16955 17.234 6.98042 16.7108 7.665 16.0441C8.937 14.7961 9.968 12.7801 9.968 9.56408C9.96774 8.60699 9.58742 7.68918 8.91066 7.01242C8.23389 6.33566 7.31609 5.95534 6.359 5.95508ZM16.665 14.5801C15.5014 14.3528 14.4529 13.7283 13.699 12.8133C12.945 11.8983 12.5325 10.7497 12.532 9.56408C12.532 6.74408 14.821 4.45508 17.641 4.45508C20.461 4.45508 22.75 6.74408 22.75 9.56408C22.75 13.3221 21.484 15.6561 19.998 17.1151C17.723 19.3491 14.874 19.5431 14.874 19.5431C14.7321 19.5536 14.5901 19.5235 14.4647 19.4562C14.3393 19.389 14.2357 19.2874 14.1659 19.1634C14.0962 19.0394 14.0632 18.8981 14.0708 18.756C14.0784 18.6139 14.1264 18.4769 14.209 18.3611C14.209 18.3611 15.563 16.4551 16.407 15.0451C16.495 14.8971 16.584 14.7341 16.665 14.5801ZM17.641 5.95508C15.649 5.95508 14.032 7.57208 14.032 9.56408C14.032 11.5561 15.649 13.1731 17.641 13.1731C17.924 13.1731 18.122 13.2891 18.266 13.4551C18.387 13.5951 18.501 13.8191 18.462 14.1481C18.428 14.4331 18.136 15.0771 17.694 15.8161C17.358 16.3761 16.945 17.0121 16.562 17.5831C17.4516 17.234 18.2624 16.7108 18.947 16.0441C20.219 14.7961 21.25 12.7801 21.25 9.56408C21.2497 8.60699 20.8694 7.68918 20.1927 7.01242C19.5159 6.33566 18.5981 5.95534 17.641 5.95508Z" fill="#ACAAA8"/>
</g>
</g>
</svg>
