<svg width="25" height="24" viewBox="0 0 25 24" fill="none" xmlns="http://www.w3.org/2000/svg">
<g id="Frame 126">
<rect width="24" height="24" transform="translate(0.15625)" fill="#00B67A"/>
<g id="Group 11">
<path id="Vector" d="M12.0791 3.5C12.1374 3.52916 12.1374 3.52916 12.1668 3.60031C12.177 3.63209 12.1875 3.66388 12.198 3.69683C12.2161 3.75106 12.2161 3.75106 12.2342 3.80647C12.2473 3.84671 12.2604 3.88695 12.2733 3.92719C12.287 3.96889 12.3007 4.01058 12.3144 4.05228C12.3511 4.16484 12.3879 4.27739 12.4243 4.38995C12.4549 4.48413 12.4855 4.57832 12.5165 4.67221C12.713 5.27436 12.9072 5.87738 13.0994 6.48098C13.2533 6.96473 13.4111 7.44703 13.5697 7.92933C13.5898 7.98998 13.6096 8.05093 13.6298 8.11187C13.6808 8.26729 13.7318 8.42271 13.7829 8.57813C13.9913 9.21206 13.9913 9.21206 14.0651 9.43863C14.0785 9.48003 14.0922 9.52115 14.1056 9.56256C14.1237 9.61708 14.1412 9.67161 14.159 9.72614C14.1686 9.7553 14.1783 9.78446 14.1879 9.81449C14.2077 9.88593 14.2077 9.88593 14.2077 9.97341C16.469 9.97341 18.7304 9.97341 21.0602 9.97341C20.896 10.1376 20.896 10.1376 20.7975 10.2093C20.7648 10.2335 20.7648 10.2335 20.7313 10.258C20.6966 10.2831 20.6966 10.2831 20.661 10.3087C20.6368 10.3265 20.6123 10.3443 20.5872 10.3627C20.4029 10.4971 20.2181 10.6307 20.0329 10.7636C19.874 10.8782 19.7159 10.9943 19.5585 11.1106C19.3141 11.2911 19.0683 11.4693 18.8216 11.6469C18.7126 11.7256 18.6032 11.8046 18.4942 11.8834C18.3632 11.9778 18.2326 12.0723 18.1017 12.1665C17.8769 12.3286 17.6526 12.4913 17.4298 12.6561C17.1855 12.8366 16.9397 13.0148 16.693 13.1923C16.5839 13.2711 16.4746 13.3501 16.3655 13.4288C16.3224 13.46 16.2795 13.4909 16.2363 13.5221C16.2148 13.5376 16.1932 13.5533 16.171 13.5694C16.1238 13.6035 16.0763 13.6376 16.029 13.6717C16.0039 13.6898 15.9791 13.7079 15.9535 13.7265C15.929 13.744 15.9048 13.7615 15.8797 13.7799C15.8558 13.7968 15.8322 13.814 15.808 13.8315C15.7313 13.8869 15.6546 13.942 15.5782 13.9974C15.5966 14.1811 15.6502 14.3465 15.7085 14.5211C15.719 14.5523 15.7293 14.5835 15.74 14.6159C15.7622 14.6836 15.7847 14.7512 15.8071 14.8189C15.8616 14.9824 15.9156 15.1466 15.9695 15.3105C15.9882 15.3668 16.0066 15.423 16.0252 15.4793C16.1284 15.7928 16.229 16.1068 16.3291 16.4212C16.5358 17.0711 16.7481 17.7191 16.9615 18.3667C17.1954 19.0764 17.4258 19.7868 17.6485 20.5C17.5576 20.4822 17.4984 20.4533 17.424 20.3985C17.4036 20.3834 17.3829 20.3682 17.3616 20.3527C17.3397 20.3364 17.3176 20.3201 17.2951 20.3032C17.2476 20.2685 17.2001 20.2335 17.1525 20.1988C17.1283 20.181 17.1041 20.1629 17.079 20.1445C16.9901 20.0792 16.9006 20.0148 16.8108 19.9503C16.5845 19.7876 16.3597 19.6226 16.1354 19.457C15.9141 19.294 15.6913 19.133 15.4683 18.9723C15.3371 18.8779 15.2061 18.7831 15.0752 18.6883C14.9661 18.6096 14.8574 18.5311 14.7483 18.4527C14.4999 18.2737 14.2529 18.0935 14.0068 17.9115C13.7639 17.7325 13.5195 17.5561 13.2746 17.3799C13.1877 17.3175 13.1008 17.2548 13.0139 17.1921C12.9926 17.177 12.9713 17.1615 12.9495 17.1458C12.8317 17.0606 12.7144 16.9749 12.5978 16.8883C12.5724 16.8696 12.5474 16.851 12.5214 16.8317C12.473 16.7959 12.4246 16.7597 12.3762 16.7236C12.3543 16.7072 12.3325 16.6912 12.3097 16.6743C12.2905 16.66 12.2712 16.6454 12.2514 16.6308C12.196 16.5926 12.14 16.5629 12.0791 16.5343C12.0514 16.5553 12.024 16.576 11.9954 16.5976C11.7175 16.8072 11.437 17.0122 11.1541 17.2155C11.0445 17.2945 10.9348 17.3735 10.8252 17.4528C10.6943 17.5473 10.5636 17.6418 10.4327 17.736C10.2053 17.8998 9.97899 18.0646 9.75359 18.2311C9.56347 18.3714 9.37248 18.5102 9.17973 18.6472C8.85198 18.8802 8.52743 19.117 8.20405 19.3561C7.98303 19.5191 7.76054 19.6797 7.53776 19.8401C7.44678 19.9057 7.3558 19.9713 7.26453 20.0372C7.21992 20.0696 7.17531 20.1017 7.1304 20.134C7.03476 20.2029 6.93941 20.272 6.84493 20.3422C6.81606 20.3638 6.78719 20.3851 6.75745 20.407C6.73296 20.4254 6.70875 20.4434 6.68368 20.4624C6.62623 20.5 6.62623 20.5 6.56791 20.5C6.60786 20.3055 6.66122 20.1198 6.72392 19.9314C6.73354 19.9022 6.74316 19.8731 6.75308 19.8427C6.77407 19.7798 6.79478 19.7165 6.81577 19.6535C6.87263 19.4815 6.9292 19.3094 6.98577 19.1371C6.99743 19.1018 7.00881 19.0665 7.02076 19.0304C7.11903 18.7312 7.21496 18.4314 7.31002 18.1314C7.53309 17.4298 7.76258 16.7305 7.99323 16.0313C8.0014 16.0056 8.00985 15.98 8.0186 15.9534C8.2338 15.3011 8.44958 14.6489 8.6674 13.9974C8.64495 13.989 8.62279 13.9805 8.59975 13.9721C8.50206 13.9309 8.43121 13.8738 8.34839 13.8079C8.21689 13.7044 8.08421 13.6038 7.94745 13.5073C7.93083 13.4953 7.91392 13.4833 7.89671 13.4711C7.86143 13.446 7.82615 13.4209 7.79057 13.3959C7.47886 13.1743 7.17035 12.9486 6.86272 12.7211C6.62011 12.5421 6.37546 12.3657 6.13052 12.1895C5.83863 11.9796 5.54791 11.7685 5.25894 11.5547C5.01604 11.3757 4.77169 11.1993 4.52675 11.0232C4.2299 10.8094 3.93364 10.5948 3.63971 10.377C3.49567 10.2703 3.35016 10.1667 3.20057 10.0676C3.18599 10.0559 3.17141 10.044 3.15625 10.0317C3.15625 10.0125 3.15625 9.99324 3.15625 9.97341C5.40795 9.97341 7.65965 9.97341 9.97958 9.97341C10.0084 9.86756 10.0373 9.76172 10.0671 9.65266C10.0945 9.56256 10.1222 9.47304 10.151 9.38352C10.1592 9.35786 10.1674 9.3322 10.1758 9.30566C10.2032 9.21964 10.2309 9.13362 10.2583 9.0476C10.2683 9.01698 10.2779 8.98666 10.2881 8.95516C10.5088 8.26612 10.7357 7.57913 10.9625 6.89213C11.1716 6.25878 11.3784 5.62456 11.5801 4.98889C11.7388 4.48967 11.905 3.99367 12.0791 3.5Z" fill="white"/>
<path id="Vector_2" d="M15.5523 14.0273C15.6147 14.2163 15.6771 14.405 15.7392 14.5939C15.7602 14.6584 15.7815 14.7225 15.8028 14.7867C15.8334 14.8791 15.8637 14.9715 15.894 15.064C15.9037 15.0925 15.913 15.1214 15.9229 15.1509C15.9317 15.1777 15.9404 15.2045 15.9494 15.2322C15.9611 15.2678 15.9611 15.2678 15.9731 15.3037C15.9897 15.3687 15.9897 15.3687 15.9897 15.4853C15.6969 15.5754 15.403 15.6547 15.1047 15.7244C14.9254 15.7664 14.7472 15.8116 14.5693 15.86C14.4034 15.9049 14.2369 15.9472 14.0707 15.9901C13.8036 16.0592 13.5368 16.1295 13.2706 16.2015C13.2084 16.2184 13.1463 16.235 13.0842 16.2519C12.99 16.277 12.8959 16.3027 12.802 16.3283C12.7084 16.3537 12.6151 16.3788 12.5214 16.4038C12.4792 16.4155 12.4792 16.4155 12.4357 16.4275C12.4095 16.4345 12.3835 16.4415 12.3567 16.4485C12.3226 16.4578 12.3226 16.4578 12.2876 16.4671C12.2281 16.4767 12.2281 16.4767 12.1406 16.4476C12.1602 16.4336 12.1602 16.4336 12.18 16.4193C12.4351 16.2356 12.6897 16.0513 12.9425 15.8644C13.1869 15.6839 13.4327 15.5057 13.6794 15.3281C13.7884 15.2494 13.8978 15.1704 14.0068 15.0917C14.1378 14.9972 14.2684 14.9027 14.3993 14.8085C14.9117 14.4472 14.9117 14.4472 15.4082 14.0658C15.4648 14.0273 15.4648 14.0273 15.5523 14.0273Z" fill="#00B67A"/>
</g>
</g>
</svg>
