<svg width="98" height="24" viewBox="0 0 98 24" fill="none" xmlns="http://www.w3.org/2000/svg">
<g id="Frame" clip-path="url(#clip0_6_252)">
<path id="Vector" d="M11.8317 0C11.9081 0.0381558 11.9081 0.0381558 11.9466 0.131256C11.9599 0.172846 11.9737 0.214436 11.9874 0.257552C12.0111 0.328521 12.0111 0.328521 12.0347 0.401017C12.0519 0.453672 12.0691 0.506327 12.0859 0.558982C12.1038 0.613545 12.1217 0.668108 12.1397 0.722671C12.1877 0.869952 12.2358 1.01723 12.2835 1.16452C12.3236 1.28776 12.3636 1.411 12.4041 1.53386C12.6613 2.32178 12.9154 3.11084 13.1668 3.90067C13.3683 4.53367 13.5747 5.16477 13.7823 5.79587C13.8086 5.87523 13.8345 5.95498 13.8609 6.03472C13.9276 6.23809 13.9944 6.44146 14.0612 6.64483C14.334 7.47434 14.334 7.47434 14.4305 7.77081C14.4481 7.82499 14.466 7.87879 14.4836 7.93297C14.5072 8.00432 14.5301 8.07568 14.5534 8.14703C14.566 8.18518 14.5786 8.22334 14.5912 8.26264C14.6171 8.35612 14.6171 8.35612 14.6171 8.47059C17.5761 8.47059 20.5351 8.47059 23.5837 8.47059C23.3689 8.6854 23.3689 8.6854 23.2399 8.77927C23.1972 8.81094 23.1972 8.81094 23.1533 8.84299C23.1079 8.8758 23.1079 8.8758 23.0614 8.90938C23.0297 8.93265 22.9977 8.95593 22.9648 8.97997C22.7237 9.15587 22.4818 9.33062 22.2395 9.50461C22.0316 9.65456 21.8247 9.80642 21.6187 9.95866C21.299 10.1948 20.9773 10.428 20.6545 10.6603C20.5118 10.7634 20.3687 10.8668 20.226 10.9698C20.0547 11.0934 19.8838 11.217 19.7124 11.3403C19.4183 11.5524 19.1248 11.7653 18.8333 11.9809C18.5136 12.2171 18.1919 12.4502 17.8691 12.6826C17.7264 12.7856 17.5833 12.889 17.4406 12.9921C17.3842 13.0329 17.3281 13.0733 17.2716 13.1141C17.2434 13.1344 17.2151 13.155 17.1861 13.176C17.1243 13.2206 17.0621 13.2652 17.0003 13.3099C16.9675 13.3335 16.9351 13.3572 16.9015 13.3816C16.8695 13.4045 16.8378 13.4274 16.805 13.4514C16.7737 13.4736 16.7428 13.4961 16.7111 13.519C16.6108 13.5915 16.5104 13.6636 16.4104 13.7361C16.4345 13.9765 16.5047 14.1928 16.581 14.4214C16.5947 14.4622 16.6081 14.503 16.6222 14.5454C16.6512 14.6339 16.6806 14.7224 16.71 14.8109C16.7813 15.025 16.8519 15.2398 16.9225 15.4542C16.9469 15.5279 16.9709 15.6015 16.9954 15.6752C17.1304 16.0853 17.2621 16.4963 17.393 16.9076C17.6635 17.7581 17.9413 18.6059 18.2206 19.4534C18.5266 20.3821 18.828 21.3115 19.1195 22.2448C19.0005 22.2216 18.923 22.1838 18.8257 22.1121C18.799 22.0922 18.7719 22.0724 18.744 22.0521C18.7154 22.0308 18.6864 22.0094 18.6571 21.9873C18.5949 21.9419 18.5327 21.8961 18.4705 21.8507C18.4388 21.8274 18.4071 21.8038 18.3743 21.7797C18.2579 21.6942 18.1408 21.6099 18.0233 21.5256C17.7272 21.3127 17.433 21.0967 17.1396 20.88C16.85 20.6667 16.5585 20.4561 16.2666 20.2458C16.0949 20.1222 15.9236 19.9982 15.7523 19.8742C15.6095 19.7712 15.4672 19.6686 15.3245 19.5659C14.9994 19.3316 14.6763 19.0958 14.3542 18.8577C14.0364 18.6235 13.7166 18.3926 13.3961 18.1622C13.2824 18.0805 13.1687 17.9985 13.055 17.9164C13.0272 17.8966 12.9993 17.8764 12.9707 17.8558C12.8165 17.7444 12.6632 17.6322 12.5105 17.5189C12.4773 17.4944 12.4445 17.47 12.4106 17.4448C12.3472 17.3979 12.2839 17.3506 12.2206 17.3033C12.1919 17.2819 12.1633 17.2609 12.1336 17.2388C12.1084 17.2201 12.0832 17.201 12.0572 17.1819C11.9847 17.132 11.9115 17.093 11.8317 17.0556C11.7955 17.0831 11.7596 17.1102 11.7222 17.1384C11.3586 17.4128 10.9916 17.681 10.6214 17.947C10.478 18.0504 10.3345 18.1538 10.191 18.2576C10.0197 18.3812 9.84879 18.5048 9.67747 18.628C9.37985 18.8425 9.08376 19.0581 8.78882 19.2759C8.54004 19.4595 8.29012 19.6411 8.03791 19.8204C7.60904 20.1253 7.18437 20.4351 6.76122 20.748C6.472 20.9613 6.18087 21.1715 5.88936 21.3814C5.77031 21.4672 5.65127 21.5531 5.53184 21.6393C5.47346 21.6817 5.41508 21.7236 5.35632 21.766C5.23117 21.856 5.1064 21.9465 4.98278 22.0384C4.945 22.0666 4.90723 22.0945 4.86831 22.1231C4.83626 22.1472 4.80459 22.1708 4.77177 22.1956C4.69661 22.2448 4.69661 22.2448 4.6203 22.2448C4.67257 21.9903 4.74239 21.7473 4.82443 21.5008C4.83702 21.4626 4.84961 21.4245 4.86259 21.3848C4.89006 21.3024 4.91715 21.2196 4.94462 21.1372C5.01902 20.912 5.09305 20.6869 5.16707 20.4614C5.18233 20.4153 5.19721 20.3691 5.21286 20.3218C5.34144 19.9303 5.46697 19.5381 5.59136 19.1454C5.88325 18.2274 6.18354 17.3124 6.48535 16.3975C6.49604 16.3639 6.5071 16.3303 6.51855 16.2956C6.80014 15.442 7.08249 14.5885 7.36751 13.7361C7.33813 13.725 7.30914 13.714 7.27899 13.7029C7.15117 13.6491 7.05845 13.5743 6.95009 13.4881C6.77801 13.3526 6.6044 13.221 6.42545 13.0947C6.4037 13.079 6.38157 13.0634 6.35906 13.0474C6.31289 13.0146 6.26672 12.9817 6.22017 12.9489C5.81228 12.6589 5.4086 12.3636 5.00605 12.066C4.68859 11.8317 4.36847 11.6009 4.04796 11.3704C3.66602 11.0957 3.28561 10.8195 2.90748 10.5398C2.58964 10.3055 2.2699 10.0747 1.94939 9.8442C1.56096 9.56452 1.1733 9.28369 0.78869 8.99866C0.6002 8.85901 0.409803 8.72356 0.214063 8.59383C0.194985 8.57857 0.175908 8.56293 0.156067 8.5469C0.156067 8.52172 0.156067 8.49653 0.156067 8.47059C3.10246 8.47059 6.04885 8.47059 9.08453 8.47059C9.1223 8.33208 9.16007 8.19358 9.19899 8.05087C9.23486 7.93297 9.27111 7.81583 9.30888 7.6987C9.31956 7.66512 9.33025 7.63154 9.34131 7.59682C9.37718 7.48426 9.41343 7.3717 9.4493 7.25914C9.46227 7.21908 9.47486 7.1794 9.48821 7.13819C9.77705 6.23657 10.0739 5.33762 10.3708 4.43866C10.6443 3.60992 10.9149 2.78003 11.1789 1.94824C11.3865 1.29501 11.604 0.645978 11.8317 0Z" fill="#00B579"/>
<path id="Vector_2" d="M72.9536 12.4388C72.9861 12.4655 73.0185 12.4922 73.0517 12.5196C73.7374 13.1095 74.1338 13.9013 74.3559 14.7663C74.3635 14.7956 74.3711 14.825 74.3788 14.8552C74.4955 15.3378 74.5329 15.8232 74.5299 16.3188C74.5299 16.3585 74.5299 16.3585 74.5299 16.3989C74.5276 16.8419 74.502 17.2712 74.4036 17.7043C74.3963 17.7359 74.3891 17.768 74.3818 17.8008C74.2135 18.517 73.9297 19.2011 73.4497 19.7647C73.4184 19.8051 73.4184 19.8051 73.3863 19.8463C72.8624 20.4988 72.0058 20.8735 71.1927 20.9734C70.216 21.054 69.1014 20.9204 68.3215 20.2718C68.1166 20.0913 67.9426 19.8963 67.7644 19.6884C67.7519 21.1112 67.7393 22.534 67.7263 24C67.0715 24 66.4168 24 65.7422 24C65.7422 19.9959 65.7422 15.9918 65.7422 11.8664C66.3592 11.8664 66.9761 11.8664 67.6118 11.8664C67.6244 12.219 67.637 12.5715 67.65 12.9348C67.6996 12.8657 67.7492 12.7963 67.8003 12.7249C68.2525 12.1137 68.916 11.7737 69.66 11.6489C70.8203 11.4982 72.0306 11.6741 72.9536 12.4388ZM68.3368 13.9268C67.6866 14.7769 67.5443 15.9193 67.6813 16.9568C67.806 17.779 68.1292 18.5093 68.8156 19.0168C69.3769 19.3823 69.974 19.4674 70.6334 19.3709C70.778 19.34 70.9112 19.2908 71.0458 19.2305C71.0764 19.2171 71.1069 19.2038 71.1386 19.19C71.6964 18.9126 72.1092 18.372 72.3313 17.8019C72.6766 16.7671 72.6499 15.5183 72.1692 14.5293C71.8475 13.9509 71.4137 13.4991 70.7788 13.2782C70.546 13.2129 70.3239 13.1881 70.0824 13.19C70.0351 13.1904 70.0351 13.1904 69.9866 13.1904C69.3277 13.2034 68.7843 13.4377 68.3368 13.9268Z" fill="#181818"/>
<path id="Vector_3" d="M87.5119 11.5954C88.6707 11.5668 89.7715 11.9132 90.6567 12.6683C90.6773 12.6851 90.6979 12.7019 90.7193 12.7191C90.8879 12.8572 91.0211 13.006 91.1505 13.1811C91.1699 13.2079 91.1898 13.2346 91.21 13.2624C92.0303 14.3995 92.252 15.8631 92.0456 17.2318C91.9563 17.764 91.8121 18.2524 91.5725 18.7351C91.5549 18.7721 91.5374 18.8091 91.519 18.8473C91.0505 19.7764 90.1885 20.4304 89.2141 20.7551C88.9477 20.8405 88.6841 20.9168 88.4055 20.9481C88.3754 20.9523 88.3452 20.9565 88.314 20.9607C87.0773 21.1053 85.7583 20.8703 84.7559 20.0996C83.9562 19.4555 83.5006 18.6138 83.2545 17.6286C83.2476 17.6023 83.2408 17.5759 83.2335 17.5488C83.0366 16.7548 83.0515 15.7486 83.2545 14.9577C83.2617 14.9283 83.2686 14.8985 83.2762 14.868C83.5349 13.8195 84.1237 12.8664 85.0558 12.2894C85.822 11.8346 86.6267 11.6381 87.5119 11.5954ZM85.8323 13.9931C85.4546 14.4685 85.2756 14.9794 85.1623 15.5682C85.155 15.6029 85.1474 15.6372 85.1402 15.6727C85.0406 16.4499 85.1054 17.3058 85.4675 18.0101C85.4866 18.0483 85.5057 18.0861 85.5255 18.125C85.8327 18.6893 86.2867 19.1197 86.8984 19.3292C87.378 19.4471 87.9839 19.4635 88.4437 19.2693C88.4799 19.2552 88.5166 19.2407 88.554 19.2258C89.203 18.9373 89.6425 18.3558 89.8936 17.7049C90.018 17.3127 90.113 16.8968 90.1225 16.4839C90.1241 16.4522 90.1256 16.4202 90.1271 16.3874C90.15 15.5121 89.9165 14.5891 89.3213 13.9275C89.3022 13.905 89.2835 13.8821 89.264 13.8584C88.9943 13.5562 88.5681 13.3349 88.1766 13.2407C88.1354 13.2304 88.1354 13.2304 88.0934 13.2197C87.2349 13.0831 86.418 13.341 85.8323 13.9931Z" fill="#181818"/>
<path id="Vector_4" d="M57.6577 12.6356C58.0839 13.0939 58.4136 13.7483 58.4136 14.3847C57.721 14.3847 57.0285 14.3847 56.315 14.3847C56.2394 14.1581 56.2394 14.1581 56.1624 13.9268C55.9663 13.5613 55.687 13.4327 55.305 13.3156C54.6709 13.1393 53.9207 13.1874 53.3293 13.4835C53.1488 13.5953 53.063 13.725 52.9954 13.9268C52.9661 14.1733 52.9974 14.3748 53.1481 14.5755C53.2419 14.6671 53.3419 14.7361 53.4533 14.8044C53.4785 14.8204 53.5041 14.8365 53.53 14.8529C54.0707 15.1577 54.7346 15.2478 55.3348 15.3745C57.6489 15.864 57.6489 15.864 58.3373 16.7885C58.6974 17.3628 58.7783 18.0587 58.6356 18.7165C58.5254 19.1618 58.3331 19.4968 58.032 19.841C58.0122 19.8646 57.9923 19.8883 57.9717 19.9123C57.4906 20.44 56.7275 20.7247 56.0479 20.8712C56.0109 20.88 56.0109 20.88 55.9735 20.8887C54.6911 21.1776 53.1511 21.0459 52.0209 20.3488C51.4265 19.9616 51.0144 19.3625 50.8446 18.6772C50.8381 18.652 50.8316 18.6269 50.8251 18.6005C50.7702 18.3548 50.7824 18.1617 50.7824 17.895C51.4372 17.8824 52.0919 17.8699 52.7665 17.8569C52.8169 18.0458 52.8672 18.2346 52.9191 18.4292C53.1011 18.8337 53.3854 19.0695 53.7967 19.2305C54.5446 19.4625 55.4286 19.4518 56.1483 19.1187C56.415 18.9554 56.5733 18.8092 56.6584 18.5055C56.6912 18.2667 56.6748 18.0259 56.5439 17.8187C56.0181 17.2231 55.1211 17.0983 54.3797 16.9453C51.9931 16.4489 51.9931 16.4489 51.3166 15.5294C50.956 14.9475 50.8683 14.226 51.0186 13.5598C51.0396 13.4907 51.0629 13.4224 51.0877 13.3545C51.0995 13.3228 51.1109 13.2912 51.1231 13.2583C51.4146 12.5864 52.0782 12.1701 52.7284 11.9046C54.255 11.3132 56.4516 11.4467 57.6577 12.6356Z" fill="#181818"/>
<path id="Vector_5" d="M25.7967 8.4707C29.0705 8.4707 32.3442 8.4707 35.7172 8.4707C35.7172 9.10027 35.7172 9.72984 35.7172 10.3785C34.4455 10.3785 33.1737 10.3785 31.8635 10.3785C31.8635 13.8034 31.8635 17.2282 31.8635 20.7569C31.1458 20.7569 30.428 20.7569 29.6886 20.7569C29.6886 17.332 29.6886 13.9071 29.6886 10.3785C28.4043 10.3785 27.1199 10.3785 25.7967 10.3785C25.7967 9.74892 25.7967 9.11935 25.7967 8.4707Z" fill="#181818"/>
<path id="Vector_6" d="M41.6352 11.8672C42.2899 11.8672 42.9447 11.8672 43.6193 11.8672C43.6204 12.1087 43.6204 12.1087 43.6216 12.3552C43.6242 12.8901 43.6269 13.4251 43.6304 13.96C43.6323 14.284 43.6338 14.6079 43.6353 14.9319C43.6368 15.2146 43.6384 15.4973 43.6399 15.7801C43.641 15.9296 43.6418 16.0788 43.6422 16.2284C43.5731 17.6856 43.5731 17.6856 44.1451 18.9604C44.4999 19.2935 44.9463 19.4037 45.4256 19.3907C45.9842 19.3522 46.4829 19.1992 46.9007 18.8115C47.3605 18.2407 47.452 17.5329 47.4513 16.8225C47.4517 16.7679 47.452 16.7134 47.4524 16.6588C47.4536 16.5127 47.4539 16.3669 47.4543 16.2208C47.4547 16.0674 47.4555 15.914 47.4566 15.7602C47.4581 15.471 47.4593 15.1814 47.46 14.8918C47.4612 14.5617 47.4627 14.2317 47.4646 13.9013C47.4681 13.2232 47.4707 12.5452 47.473 11.8672C48.1278 11.8672 48.7825 11.8672 49.4571 11.8672C49.4571 14.801 49.4571 17.7348 49.4571 20.7575C48.815 20.7575 48.1728 20.7575 47.5112 20.7575C47.4986 20.3797 47.486 20.002 47.473 19.6128C47.3917 19.725 47.3917 19.725 47.3086 19.8395C46.8587 20.4355 46.1853 20.8185 45.4553 20.9628C44.5243 21.0841 43.4434 20.9574 42.6799 20.3759C41.9523 19.7551 41.7241 18.8817 41.6504 17.9645C41.6165 17.4578 41.6256 16.9488 41.6276 16.4409C41.6279 16.2795 41.6279 16.1185 41.6279 15.9571C41.6283 15.6526 41.6291 15.3485 41.6298 15.0444C41.6306 14.6976 41.631 14.3507 41.6314 14.0039C41.6321 13.2915 41.6337 12.5796 41.6352 11.8672Z" fill="#181818"/>
<path id="Vector_7" d="M60.6374 9.19531C61.2922 9.19531 61.9469 9.19531 62.6215 9.19531C62.6215 10.0767 62.6215 10.9581 62.6215 11.8662C63.2007 11.8662 63.7799 11.8662 64.3767 11.8662C64.3767 12.3573 64.3767 12.8483 64.3767 13.3543C63.7975 13.3543 63.2183 13.3543 62.6215 13.3543C62.625 13.9926 62.6284 14.6306 62.6326 15.269C62.6345 15.565 62.636 15.8615 62.6375 16.158C62.6387 16.4163 62.6402 16.675 62.6421 16.9333C62.6433 17.0703 62.644 17.2069 62.6444 17.3435C62.6452 17.4965 62.6463 17.6499 62.6475 17.8029C62.6475 17.8475 62.6478 17.8922 62.6478 17.938C62.6421 18.5187 62.6421 18.5187 62.8505 19.0395C63.1057 19.2104 63.3545 19.2368 63.6563 19.2349C63.683 19.2352 63.7097 19.2352 63.7368 19.2356C63.9665 19.2352 64.1836 19.2131 64.4148 19.1921C64.4148 19.7084 64.4148 20.2246 64.4148 20.7565C63.9795 20.805 63.5685 20.8466 63.1343 20.8447C63.1088 20.8447 63.0836 20.8447 63.0573 20.8447C62.3613 20.8412 61.6646 20.7874 61.1407 20.2773C60.7725 19.8667 60.6706 19.3325 60.671 18.7915C60.671 18.7434 60.671 18.695 60.671 18.6454C60.671 18.5927 60.671 18.54 60.6714 18.4874C60.6714 18.4313 60.6714 18.3752 60.6714 18.3191C60.6714 18.1676 60.6714 18.0162 60.6718 17.8643C60.6718 17.706 60.6721 17.5472 60.6721 17.3885C60.6721 17.0886 60.6725 16.7883 60.6729 16.488C60.6733 16.1465 60.6733 15.8047 60.6737 15.4628C60.674 14.76 60.6748 14.0571 60.6756 13.3543C60.1845 13.3543 59.6934 13.3543 59.1875 13.3543C59.1875 12.8632 59.1875 12.3722 59.1875 11.8662C59.666 11.8662 60.1444 11.8662 60.6374 11.8662C60.6374 10.9848 60.6374 10.1034 60.6374 9.19531Z" fill="#181818"/>
<path id="Vector_8" d="M94.0905 9.19531C94.7453 9.19531 95.4001 9.19531 96.0746 9.19531C96.0746 10.0767 96.0746 10.9581 96.0746 11.8662C96.6539 11.8662 97.2331 11.8662 97.8298 11.8662C97.8298 12.3573 97.8298 12.8483 97.8298 13.3543C97.2506 13.3543 96.6714 13.3543 96.0746 13.3543C96.0781 13.9812 96.0815 14.6081 96.0857 15.235C96.0876 15.5261 96.0891 15.8173 96.0907 16.1084C96.0922 16.3625 96.0933 16.6166 96.0953 16.8704C96.0964 17.0047 96.0972 17.139 96.0975 17.2733C96.0575 18.1841 96.0575 18.1841 96.3036 19.0395C96.3723 19.0964 96.3723 19.0964 96.4516 19.1276C96.4764 19.1395 96.5016 19.1509 96.5276 19.1631C96.721 19.2322 96.9084 19.236 97.1121 19.2349C97.1388 19.2352 97.1659 19.2352 97.1934 19.2356C97.4097 19.2352 97.6119 19.2139 97.8298 19.1921C97.8298 19.7084 97.8298 20.2246 97.8298 20.7565C97.4078 20.8061 97.011 20.8466 96.5898 20.8447C96.5642 20.8447 96.5386 20.8447 96.5127 20.8447C95.811 20.8412 95.1177 20.7867 94.5911 20.2719C94.1371 19.7794 94.1226 19.0853 94.1245 18.4485C94.1245 18.3928 94.1245 18.3371 94.1245 18.2814C94.1245 18.131 94.1245 17.9803 94.1249 17.83C94.1249 17.6728 94.1253 17.5152 94.1253 17.3576C94.1253 17.06 94.1256 16.762 94.126 16.4644C94.1264 16.1252 94.1264 15.786 94.1268 15.4468C94.1272 14.7493 94.1279 14.0518 94.1287 13.3543C93.6376 13.3543 93.1466 13.3543 92.6406 13.3543C92.6406 12.8632 92.6406 12.3722 92.6406 11.8662C93.1191 11.8662 93.5976 11.8662 94.0905 11.8662C94.0905 10.9848 94.0905 10.1034 94.0905 9.19531Z" fill="#181818"/>
<path id="Vector_9" d="M79.6719 8.4707C80.3266 8.4707 80.9814 8.4707 81.656 8.4707C81.656 12.5251 81.656 16.5796 81.656 20.7569C81.0012 20.7569 80.3465 20.7569 79.6719 20.7569C79.6719 16.7024 79.6719 12.648 79.6719 8.4707Z" fill="#181818"/>
<path id="Vector_10" d="M40.493 11.6759C40.493 12.3055 40.493 12.9351 40.493 13.5837C40.3545 13.5711 40.216 13.5585 40.0733 13.5456C39.6173 13.5246 39.2033 13.5162 38.776 13.6982C38.7431 13.7111 38.7099 13.7241 38.676 13.7375C38.1117 13.9847 37.7469 14.4998 37.5214 15.055C37.3371 15.5781 37.2829 16.0875 37.2799 16.6385C37.2795 16.6827 37.2791 16.727 37.2787 16.7728C37.2776 16.9181 37.2768 17.0635 37.2757 17.2089C37.2749 17.31 37.2741 17.4115 37.2734 17.5126C37.2715 17.7511 37.2699 17.9896 37.268 18.228C37.2661 18.5264 37.2638 18.8252 37.2616 19.1235C37.2574 19.6551 37.2535 20.187 37.2497 20.7188C36.595 20.7188 35.9402 20.7188 35.2656 20.7188C35.2656 17.7976 35.2656 14.8764 35.2656 11.8667C35.8826 11.8667 36.4996 11.8667 37.1353 11.8667C37.1543 12.6222 37.1543 12.6222 37.1734 13.3929C37.249 13.2418 37.3245 13.0907 37.4023 12.9351C37.8465 12.2902 38.5352 11.7881 39.3101 11.6378C39.6513 11.5809 40.1774 11.5183 40.493 11.6759Z" fill="#181818"/>
<path id="Vector_11" d="M75.9688 11.8672C76.6235 11.8672 77.2783 11.8672 77.9529 11.8672C77.9529 14.801 77.9529 17.7348 77.9529 20.7575C77.2981 20.7575 76.6433 20.7575 75.9688 20.7575C75.9688 17.8237 75.9688 14.8899 75.9688 11.8672Z" fill="#181818"/>
<path id="Vector_12" d="M16.3705 13.7734C16.4521 14.0207 16.5338 14.2676 16.6151 14.5148C16.6425 14.5991 16.6704 14.6831 16.6982 14.767C16.7383 14.888 16.778 15.0089 16.8177 15.1299C16.8303 15.1673 16.8425 15.205 16.8554 15.2436C16.8669 15.2787 16.8783 15.3138 16.8902 15.35C16.9054 15.3966 16.9054 15.3966 16.9211 15.4435C16.9428 15.5286 16.9428 15.5286 16.9428 15.6812C16.5597 15.7991 16.1751 15.9029 15.7848 15.9941C15.5501 16.049 15.317 16.1082 15.0842 16.1715C14.8671 16.2303 14.6493 16.2856 14.4318 16.3417C14.0823 16.4321 13.7331 16.5241 13.3848 16.6183C13.3035 16.6405 13.2222 16.6622 13.141 16.6843C13.0177 16.7172 12.8945 16.7507 12.7716 16.7843C12.6491 16.8175 12.527 16.8503 12.4046 16.8831C12.3492 16.8984 12.3492 16.8984 12.2924 16.914C12.258 16.9232 12.2241 16.9324 12.189 16.9415C12.1443 16.9537 12.1443 16.9537 12.0986 16.9659C12.0207 16.9785 12.0207 16.9785 11.9062 16.9404C11.9318 16.9221 11.9318 16.9221 11.9578 16.9034C12.2916 16.663 12.6247 16.4218 12.9555 16.1773C13.2753 15.9411 13.5969 15.7079 13.9197 15.4756C14.0624 15.3725 14.2055 15.2691 14.3482 15.1661C14.5195 15.0425 14.6905 14.9189 14.8618 14.7956C15.5322 14.3229 15.5322 14.3229 16.182 13.8238C16.256 13.7734 16.256 13.7734 16.3705 13.7734Z" fill="#005229"/>
<path id="Vector_13" d="M75.9688 8.4707C76.6235 8.4707 77.2783 8.4707 77.9529 8.4707C77.9529 9.10027 77.9529 9.72984 77.9529 10.3785C77.2981 10.3785 76.6433 10.3785 75.9688 10.3785C75.9688 9.74892 75.9688 9.11935 75.9688 8.4707Z" fill="#181818"/>
</g>
<defs>
<clipPath id="clip0_6_252">
<rect width="97.6789" height="24" fill="white" transform="translate(0.15625)"/>
</clipPath>
</defs>
</svg>
